<svg xmlns="http://www.w3.org/2000/svg" width="640" height="640" viewBox="0 0 640 640" role="img" aria-label="真实质感红中麻将牌">
  <defs>
    <linearGradient id="felt" x1="0" y1="0" x2="1" y2="1">
      <stop offset="0" stop-color="#153d33"/>
      <stop offset="0.58" stop-color="#0d2b25"/>
      <stop offset="1" stop-color="#071916"/>
    </linearGradient>
    <radialGradient id="lamp" cx="58%" cy="24%" r="62%">
      <stop offset="0" stop-color="#ffe4a4" stop-opacity="0.42"/>
      <stop offset="0.42" stop-color="#c4853e" stop-opacity="0.16"/>
      <stop offset="1" stop-color="#000000" stop-opacity="0"/>
    </radialGradient>
    <linearGradient id="tileTop" x1="0.12" y1="0.02" x2="0.86" y2="0.96">
      <stop offset="0" stop-color="#ffffff"/>
      <stop offset="0.22" stop-color="#fffdf2"/>
      <stop offset="0.7" stop-color="#f0e2c2"/>
      <stop offset="1" stop-color="#d7bf8f"/>
    </linearGradient>
    <linearGradient id="tileSide" x1="0" y1="0" x2="1" y2="1">
      <stop offset="0" stop-color="#d4b171"/>
      <stop offset="0.46" stop-color="#b28443"/>
      <stop offset="1" stop-color="#6f4823"/>
    </linearGradient>
    <linearGradient id="tileEdge" x1="0" y1="0" x2="0" y2="1">
      <stop offset="0" stop-color="#fff7dc"/>
      <stop offset="1" stop-color="#cfa45e"/>
    </linearGradient>
    <linearGradient id="wood" x1="0" y1="0" x2="1" y2="0">
      <stop offset="0" stop-color="#4a2516"/>
      <stop offset="0.52" stop-color="#8f542a"/>
      <stop offset="1" stop-color="#2d150d"/>
    </linearGradient>
    <filter id="softShadow" x="-30%" y="-30%" width="160%" height="160%">
      <feDropShadow dx="0" dy="24" stdDeviation="18" flood-color="#000000" flood-opacity="0.42"/>
    </filter>
    <filter id="innerGrain" x="-20%" y="-20%" width="140%" height="140%">
      <feTurbulence baseFrequency="0.95" numOctaves="2" seed="12" type="fractalNoise"/>
      <feColorMatrix type="saturate" values="0"/>
      <feComponentTransfer>
        <feFuncA type="table" tableValues="0 0.08"/>
      </feComponentTransfer>
      <feBlend in2="SourceGraphic" mode="multiply"/>
    </filter>
    <filter id="engrave" x="-20%" y="-20%" width="140%" height="140%">
      <feDropShadow dx="0" dy="1.5" stdDeviation="0.6" flood-color="#fff2ce" flood-opacity="0.7"/>
      <feDropShadow dx="0" dy="-1.2" stdDeviation="0.7" flood-color="#5c0e0e" flood-opacity="0.45"/>
    </filter>
    <clipPath id="faceClip">
      <rect x="220" y="126" width="224" height="318" rx="28"/>
    </clipPath>
  </defs>

  <rect width="640" height="640" fill="url(#felt)"/>
  <rect width="640" height="640" fill="url(#lamp)"/>
  <g opacity="0.26">
    <path d="M0 118C106 70 173 95 276 67c110-30 209-55 364 12" fill="none" stroke="#f5c169" stroke-width="1.4"/>
    <path d="M0 526c116-42 185-27 300-44 126-18 206-62 340-18" fill="none" stroke="#f5c169" stroke-width="1.1"/>
  </g>
  <g opacity="0.1">
    <path d="M35 0v640M85 0v640M135 0v640M185 0v640M235 0v640M285 0v640M335 0v640M385 0v640M435 0v640M485 0v640M535 0v640M585 0v640" stroke="#ffffff"/>
    <path d="M0 40h640M0 90h640M0 140h640M0 190h640M0 240h640M0 290h640M0 340h640M0 390h640M0 440h640M0 490h640M0 540h640M0 590h640" stroke="#000000"/>
  </g>

  <g transform="translate(68 456) rotate(-5)">
    <rect x="0" y="0" width="502" height="52" rx="12" fill="url(#wood)"/>
    <rect x="20" y="9" width="462" height="20" rx="7" fill="#2b130b" opacity="0.56"/>
    <path d="M28 42c94-19 161 5 246-10 75-14 126-31 198-9" fill="none" stroke="#c27a3f" stroke-width="4" opacity="0.5"/>
  </g>

  <g transform="translate(123 173) rotate(-13)" opacity="0.78" filter="url(#softShadow)">
    <path d="M52 78h164c15 0 29 12 32 27l21 101c4 20-9 38-29 38H72c-15 0-29-12-32-27L19 116c-4-20 9-38 33-38Z" fill="url(#tileSide)"/>
    <rect x="42" y="52" width="212" height="176" rx="25" fill="#ead8aa"/>
    <rect x="62" y="71" width="172" height="136" rx="18" fill="#fff8e8"/>
    <path d="M89 104h112M86 141h117M91 178h106" stroke="#174e3c" stroke-width="12" stroke-linecap="round" opacity="0.28"/>
  </g>

  <g transform="translate(380 112) rotate(18)" opacity="0.66" filter="url(#softShadow)">
    <path d="M42 70h142c15 0 28 12 31 27l18 86c4 19-8 36-27 36H60c-15 0-28-12-31-27L11 106c-4-19 8-36 31-36Z" fill="url(#tileSide)"/>
    <rect x="33" y="49" width="190" height="153" rx="22" fill="#ecd9ab"/>
    <rect x="51" y="66" width="154" height="119" rx="16" fill="#fff8e8"/>
    <circle cx="98" cy="104" r="14" fill="none" stroke="#1b6b56" stroke-width="8"/>
    <circle cx="154" cy="139" r="14" fill="none" stroke="#b7312a" stroke-width="8"/>
  </g>

  <g filter="url(#softShadow)">
    <path d="M224 154h210c19 0 36 15 39 34l41 252c4 26-14 50-41 50H248c-19 0-36-15-39-34l-41-252c-4-26 15-50 56-50Z" fill="url(#tileSide)"/>
    <path d="M237 139h211c19 0 35 14 38 33l36 226c4 25-15 48-40 48H257c-19 0-35-14-38-33l-36-226c-4-25 15-48 54-48Z" fill="url(#tileEdge)"/>
    <rect x="220" y="126" width="224" height="318" rx="28" fill="url(#tileTop)"/>
    <rect x="220" y="126" width="224" height="318" rx="28" fill="none" stroke="#fffdf3" stroke-width="10" opacity="0.72"/>
    <rect x="232" y="139" width="200" height="292" rx="22" fill="none" stroke="#cdb786" stroke-width="3" opacity="0.72"/>
    <g clip-path="url(#faceClip)" filter="url(#innerGrain)">
      <rect x="220" y="126" width="224" height="318" rx="28" fill="transparent"/>
      <path d="M231 166c66-24 134-17 197 7" fill="none" stroke="#ffffff" stroke-width="16" opacity="0.38"/>
      <path d="M234 405c62 14 121 11 190-8" fill="none" stroke="#b98f52" stroke-width="12" opacity="0.18"/>
    </g>
    <path d="M247 159h168" stroke="#ffffff" stroke-width="7" stroke-linecap="round" opacity="0.66"/>
    <path d="M438 172c18 82 31 158 41 229" stroke="#8b6534" stroke-width="7" stroke-linecap="round" opacity="0.22"/>

    <g transform="translate(332 286)" filter="url(#engrave)">
      <text x="0" y="0" fill="#b72222" font-family="Songti SC, STSong, Noto Serif CJK SC, serif" font-size="142" font-weight="900" text-anchor="middle" dominant-baseline="central">中</text>
      <text x="0" y="0" fill="none" stroke="#7e1616" stroke-width="2.6" font-family="Songti SC, STSong, Noto Serif CJK SC, serif" font-size="142" font-weight="900" text-anchor="middle" dominant-baseline="central">中</text>
    </g>

    <g opacity="0.92">
      <circle cx="279" cy="196" r="10" fill="none" stroke="#b72222" stroke-width="4"/>
      <circle cx="312" cy="196" r="10" fill="none" stroke="#1c765d" stroke-width="4"/>
      <circle cx="345" cy="196" r="10" fill="none" stroke="#173047" stroke-width="4"/>
      <circle cx="378" cy="196" r="10" fill="none" stroke="#b72222" stroke-width="4"/>
      <circle cx="279" cy="374" r="10" fill="none" stroke="#173047" stroke-width="4"/>
      <circle cx="312" cy="374" r="10" fill="none" stroke="#b72222" stroke-width="4"/>
      <circle cx="345" cy="374" r="10" fill="none" stroke="#1c765d" stroke-width="4"/>
      <circle cx="378" cy="374" r="10" fill="none" stroke="#173047" stroke-width="4"/>
    </g>
  </g>

  <g opacity="0.22">
    <ellipse cx="342" cy="500" rx="186" ry="30" fill="#000000"/>
    <ellipse cx="360" cy="106" rx="70" ry="11" fill="#fff7d6"/>
  </g>
</svg>
